<svg width="243" height="243" viewBox="0 0 243 243" fill="none" xmlns="http://www.w3.org/2000/svg">
<path d="M0 121.5C0 54.3974 54.3974 0 121.5 0C188.603 0 243 54.3974 243 121.5V236C243 239.866 239.866 243 236 243H121.5C54.3974 243 0 188.603 0 121.5Z" fill="white"/>
<g filter="url(#filter0_i_42_470)">
<path d="M188 121.163C148.966 108.19 133.352 93.9192 120.341 55C107.33 93.9192 93.0174 108.19 53.9834 121.163C93.0174 134.136 107.33 148.406 120.341 187.326C133.352 148.406 148.966 134.136 188 121.163Z" fill="#84FFA7"/>
</g>
<defs>
<filter id="filter0_i_42_470" x="53.9834" y="55" width="134.017" height="136.326" filterUnits="userSpaceOnUse" color-interpolation-filters="sRGB">
<feFlood flood-opacity="0" result="BackgroundImageFix"/>
<feBlend mode="normal" in="SourceGraphic" in2="BackgroundImageFix" result="shape"/>
<feColorMatrix in="SourceAlpha" type="matrix" values="0 0 0 0 0 0 0 0 0 0 0 0 0 0 0 0 0 0 127 0" result="hardAlpha"/>
<feOffset dy="4"/>
<feGaussianBlur stdDeviation="2"/>
<feComposite in2="hardAlpha" operator="arithmetic" k2="-1" k3="1"/>
<feColorMatrix type="matrix" values="0 0 0 0 0 0 0 0 0 0 0 0 0 0 0 0 0 0 0.25 0"/>
<feBlend mode="normal" in2="shape" result="effect1_innerShadow_42_470"/>
</filter>
</defs>
</svg>
