<svg width="707" height="244" viewBox="0 0 707 244" fill="none" xmlns="http://www.w3.org/2000/svg">
<path d="M692.674 201.307V189.301C668.661 190.146 642.619 200.124 642.619 225.151C642.619 231.916 644.31 241.216 655.302 241.216C675.595 241.216 689.123 221.938 692.674 201.307ZM644.986 184.566H643.295C643.295 162.582 659.36 155.311 677.286 155.311C694.027 155.311 706.203 161.737 706.203 179.831V241.555H692.674V209.255C688.108 225.151 675.764 243.246 652.596 243.246C636.869 243.246 629.09 234.96 629.09 223.122C629.09 197.925 667.477 188.286 692.674 187.61V183.889C692.674 164.442 687.77 157.34 674.58 157.34C660.882 157.34 644.986 164.442 644.986 184.566Z" fill="white"/>
<path d="M544.115 230.056L545.298 228.703C552.401 237.158 561.194 241.217 574.554 241.217C591.464 241.217 602.456 234.622 602.456 225.152C602.456 204.521 549.357 211.285 549.357 180.339C549.357 166.134 560.687 157.002 577.936 157.002C584.869 157.002 593.663 158.524 601.611 163.597L600.765 165.288C592.986 160.553 584.362 159.031 577.598 159.031C561.702 159.031 553.246 167.487 553.246 175.096C553.246 194.374 606.515 189.47 606.515 220.755C606.515 236.313 593.324 243.246 574.892 243.246C561.025 243.246 551.386 239.357 544.115 230.056Z" fill="white"/>
<path d="M477.148 155.311C498.456 155.311 521.792 171.883 521.792 199.109C521.792 226.673 498.456 243.246 477.148 243.246C455.841 243.246 432.504 226.673 432.504 199.109C432.504 171.883 455.841 155.311 477.148 155.311ZM477.148 157.34C462.267 157.34 446.033 172.898 446.033 199.109C446.033 225.659 462.267 241.216 477.148 241.216C492.03 241.216 508.264 224.813 508.264 198.263C508.264 172.052 492.03 157.34 477.148 157.34Z" fill="white"/>
<path d="M477.529 180.254C481.135 191.213 485.101 195.597 495.919 199.25C485.101 202.903 481.135 206.921 477.529 217.88C473.923 206.921 469.956 202.903 459.139 199.25C469.956 195.597 473.923 191.213 477.529 180.254Z" fill="#84FFA7"/>
<path d="M282 243.246V158.693H295.528V194.374C299.587 173.405 310.41 157.002 328.335 157.002C340.511 157.002 352.686 163.428 352.686 181.522V194.374C356.745 173.405 367.568 157.002 385.493 157.002C397.669 157.002 409.844 163.428 409.844 181.522V243.246H396.316V185.581C396.316 166.134 391.412 159.031 383.464 159.031C364.524 159.031 353.194 185.581 352.686 211.285V243.246H339.158V185.581C339.158 166.134 334.254 159.031 326.306 159.031C307.366 159.031 296.036 185.581 295.528 211.285V243.246H282Z" fill="white"/>
<path d="M692.674 79.1277V67.1212C668.661 67.9667 642.619 77.944 642.619 102.972C642.619 109.736 644.31 119.037 655.302 119.037C675.595 119.037 689.123 99.7587 692.674 79.1277ZM644.986 62.3862H643.295C643.295 40.4024 659.36 33.1309 677.286 33.1309C694.027 33.1309 706.203 39.5569 706.203 57.6513V119.375H692.674V87.0757C688.108 102.972 675.764 121.066 652.596 121.066C636.869 121.066 629.09 112.78 629.09 100.942C629.09 75.7456 667.477 66.1065 692.674 65.4301V61.7098C692.674 42.2626 687.77 35.1601 674.58 35.1601C660.882 35.1601 644.986 42.2626 644.986 62.3862Z" fill="white"/>
<path d="M575.074 109.646C576.136 112.996 578.564 114.671 582.359 114.671C585.697 114.671 587.898 113.3 588.96 110.559L616.05 33.1309H618.098L590.781 111.016C589.567 114.518 587.746 117.107 585.318 118.782C582.89 120.305 579.627 121.066 575.529 121.066C567.486 121.066 562.25 117.716 559.822 111.016L532.277 33.1309H538.879C544.797 33.1309 548.819 36.024 550.944 41.8102L575.074 109.646Z" fill="white"/>
<path d="M448.908 93.84C450.599 82.0025 460.576 72.8708 486.449 71.3488C496.088 70.6724 500.316 64.9228 500.316 57.9895C500.316 47.674 491.015 35.1601 478.332 35.1601C462.267 35.1601 446.033 50.7179 446.033 76.9293C446.033 83.1863 447.048 88.7668 448.908 93.84ZM486.618 73.3781C464.804 74.0545 450.937 82.1716 450.261 97.2221C456.687 111.258 469.539 119.037 481.714 119.037C495.412 119.037 508.264 112.103 517.057 96.8839L518.579 97.7294C509.279 112.442 497.779 121.066 478.163 121.066C455.841 121.066 432.504 104.494 432.504 76.9293C432.504 49.7033 455.841 33.1309 478.163 33.1309C496.934 33.1309 513.844 46.9976 513.844 58.3277C513.844 65.9374 505.389 72.8708 486.618 73.3781Z" fill="white"/>
<path d="M396.147 71.0099V65.4294C390.059 48.5188 377.883 35.1594 364.524 35.1594C351.503 35.1594 337.805 49.8717 337.805 76.0831C337.805 102.633 351.334 119.036 364.524 119.036C382.787 119.036 396.147 104.493 396.147 71.0099ZM409.675 1V119.374H396.147V90.6262C391.75 112.441 379.405 121.065 363.847 121.065C344.569 121.065 324.277 104.493 324.277 76.9286C324.277 49.7025 344.569 33.1302 363.847 33.1302C377.714 33.1302 389.382 44.4603 396.147 60.1871V1H409.675Z" fill="white"/>
<path d="M0 121.5C0 54.3974 54.3974 0 121.5 0C188.603 0 243 54.3974 243 121.5V236C243 239.866 239.866 243 236 243H121.5C54.3974 243 0 188.603 0 121.5Z" fill="white"/>
<g filter="url(#filter0_i_42_506)">
<path d="M188 121.163C148.966 108.19 133.352 93.9192 120.341 55C107.33 93.9192 93.0174 108.19 53.9834 121.163C93.0174 134.136 107.33 148.406 120.341 187.326C133.352 148.406 148.966 134.136 188 121.163Z" fill="#84FFA7"/>
</g>
<defs>
<filter id="filter0_i_42_506" x="53.9834" y="55" width="134.017" height="136.326" filterUnits="userSpaceOnUse" color-interpolation-filters="sRGB">
<feFlood flood-opacity="0" result="BackgroundImageFix"/>
<feBlend mode="normal" in="SourceGraphic" in2="BackgroundImageFix" result="shape"/>
<feColorMatrix in="SourceAlpha" type="matrix" values="0 0 0 0 0 0 0 0 0 0 0 0 0 0 0 0 0 0 127 0" result="hardAlpha"/>
<feOffset dy="4"/>
<feGaussianBlur stdDeviation="2"/>
<feComposite in2="hardAlpha" operator="arithmetic" k2="-1" k3="1"/>
<feColorMatrix type="matrix" values="0 0 0 0 0 0 0 0 0 0 0 0 0 0 0 0 0 0 0.25 0"/>
<feBlend mode="normal" in2="shape" result="effect1_innerShadow_42_506"/>
</filter>
</defs>
</svg>
